<svg enable-background="new 0 0 97.827 97.826" height="97.826" viewBox="0 0 97.827 97.826" width="97.827" xmlns="http://www.w3.org/2000/svg"><path d="m94.827 57.419c3-4.3-5.9-14.2-6.3-15.7-1.301-4.3-.4-8-2.301-12.1-.3-.7-.6-1.4-1-2.1-.199-.4-.199-.7 0-1.1.9-1.2 1.801-2.5 2.7-3.7 1.601-2.2 2.101-4.8 1.101-7.3-.4-1-3.101-5-8.4.2-1.2 1.1-2.4 2.2-3.8 3.1-5 3.2-10.4 5.5-15.8 8.1-2.4 1.2-4.9 2.3-7.301 3.5l14.601 22.8s5.1-1.601 5.5-1c.6.8 1.1 1.5 1.7 2.3 1.6 2.3 3.699 4 6.199 5.3 4.301 2 9.9 2.3 13.101-2.3z"/><path d="m16.527 31.019-8.9-7.2c-2-1.6-5-1.3-6.6.7-1.601 2-1.301 5 .699 6.6l9.101 7.3v19.9c0 .1-8 15.8-8 15.8-1.2 2.3-.3 5.1 2 6.3.7.4 1.399.5 2.2.5 1.699 0 3.3-.9 4.199-2.5l8.101-15.5 9.1 15.7c.9 1.5 2.5 2.399 4.101 2.399.8 0 1.6-.199 2.3-.6 2.3-1.3 3-4.2 1.7-6.4l-7.9-13.699h29.3v16.1c0 2.6 2.101 4.7 4.7 4.7s4.7-2.101 4.7-4.7v-17.8c0-.101-18.5-27.6-18.5-27.6z"/><path d="m94.527 77.619h-.2l-.4-6.9c0-.2 0-.3 0-.399 1.601-.101 2.9-1.4 2.9-3.101s-1.4-3.1-3.101-3.1h-.3c-.8 0-1.5.3-2 .8-.5-.5-1.2-.8-2-.8h-.3c-1.7 0-3.1 1.399-3.1 3.1 0 1.601 1.199 2.9 2.699 3v.5l-.399 6.9c-2 0-3.3 1.6-3.3 3.6s1.6 3.601 3.6 3.601h.4c.899 0 1.699-.301 2.399-.9.601.5 1.5.9 2.4.9h.399c2 0 3.601-1.601 3.601-3.601s-1.298-3.6-3.298-3.6z"/></svg>