<?xml version="1.0" encoding="iso-8859-1"?>
<!-- Generator: Adobe Illustrator 18.0.0, SVG Export Plug-In . SVG Version: 6.00 Build 0)  -->
<!DOCTYPE svg PUBLIC "-//W3C//DTD SVG 1.1//EN" "http://www.w3.org/Graphics/SVG/1.1/DTD/svg11.dtd">
<svg version="1.1" id="Capa_1" xmlns="http://www.w3.org/2000/svg" xmlns:xlink="http://www.w3.org/1999/xlink" x="0px" y="0px"
	 viewBox="0 0 487.877 487.877" style="enable-background:new 0 0 487.877 487.877;" xml:space="preserve">
<g>
	<path d="M484.922,217.9l-15.477-6.938c-1.61-9.874-10.199-17.433-20.522-17.433h-4.039c-6.891-5.807-15.446-8.959-24.61-8.959
		c-11.355,0-22.117,5.07-27.42,12.917c-3.967,5.869-4.667,12.793-1.973,19.498c0.815,2.028,1.751,3.755,2.771,5.226
		c-0.39,0.619-0.751,1.251-1.083,1.896c-3.77,7.324-3.207,15.339,1.542,21.989c3.251,4.552,6.813,6.924,10.072,8.095h-69.822
		c0.532-1.369,0.835-2.851,0.835-4.405c0-6.733-5.478-12.211-12.211-12.211s-12.211,5.478-12.211,12.211
		c0,5.374,3.494,9.94,8.328,11.567c-3.871,7.075-7.912,20.496,1.164,38.934l-10.794,14.662c-0.819,1.112-1.142,2.513-0.891,3.871
		l4.914,26.643c0.438,2.372,2.505,4.093,4.917,4.093h5.004c1.482,0,2.89-0.658,3.839-1.797c0.95-1.139,1.346-2.64,1.08-4.099
		l-3.118-17.129l28.521-20.744c21.476,7.089,48.782,14.664,67.459,14.684l3.909,24.861c0.383,2.432,2.478,4.223,4.939,4.223h4.424
		c2.762,0,5-2.239,5-5v-30.209c21.137-23.453,12.604-61.907,12.604-61.907c12.094-0.799,20.107-5.298,24.832-9.129
		c6.972-5.653,10.97-13.252,10.97-20.847C487.877,220.492,486.72,218.705,484.922,217.9z"/>
	<path d="M308.443,238.592l-10.718-27.489c5.016-7.747,5.646-17.587,1.78-25.875l10.753-12.043c2.383-2.669,2.958-6.497,1.465-9.749
		c-1.492-3.251-4.751-5.295-8.349-5.243l-6.51,0.123l6.186-10.385c1.998-3.353,1.607-7.611-0.968-10.544
		c-2.575-2.932-6.749-3.872-10.33-2.325l-107.457,46.384c0,0-107.53,6.085-107.603,6.089c-24.755,1.487-48.198-11.758-59.721-33.744
		c-2.307-4.402-7.745-6.102-12.149-3.794c-4.402,2.307-6.102,7.747-3.794,12.149c10.435,19.911,28.482,34.235,49.366,40.291
		c-6.709,9.451-18.803,33.596-1.473,69.161l-17.492,23.759c-1.474,2.002-2.054,4.524-1.603,6.968l8.09,43.861
		c0.787,4.269,4.51,7.368,8.851,7.368h8.238c2.669,0,5.2-1.185,6.91-3.234c1.71-2.05,2.423-4.752,1.944-7.378l-4.853-26.649
		l52.703-39.55c0.132-0.099,0.261-0.202,0.387-0.308c4.236-3.559,7.564-7.397,10.164-11.361
		c19.789,4.462,44.151,9.685,64.204,13.156l10.649,67.722c0.689,4.377,4.46,7.602,8.891,7.602h6.777c4.971,0,9-4.029,9-9v-69.342
		c16.988-19.856,14.359-47.306,14.359-47.306l3.302-2.258c9.236,16.903,26.465,27.309,46.483,27.309c0,0,0.003,0,0.005,0
		c5.569,0,11.186-0.831,16.691-2.47c2.412-0.718,4.413-2.412,5.519-4.672C309.249,243.556,309.357,240.936,308.443,238.592z"/>
</g>
<g>
</g>
<g>
</g>
<g>
</g>
<g>
</g>
<g>
</g>
<g>
</g>
<g>
</g>
<g>
</g>
<g>
</g>
<g>
</g>
<g>
</g>
<g>
</g>
<g>
</g>
<g>
</g>
<g>
</g>
</svg>
