<?xml version="1.0" encoding="iso-8859-1"?>
<!-- Generator: Adobe Illustrator 18.0.0, SVG Export Plug-In . SVG Version: 6.00 Build 0)  -->
<!DOCTYPE svg PUBLIC "-//W3C//DTD SVG 1.1//EN" "http://www.w3.org/Graphics/SVG/1.1/DTD/svg11.dtd">
<svg version="1.1" id="Capa_1" xmlns="http://www.w3.org/2000/svg" xmlns:xlink="http://www.w3.org/1999/xlink" x="0px" y="0px"
	 viewBox="0 0 297 297" style="enable-background:new 0 0 297 297;" xml:space="preserve">
<path d="M251.201,82.653V39.966c0-12.245-9.961-22.206-22.206-22.206h-32.753c-10.503,0-19.306,7.338-21.603,17.15
	c-22.292-9.386-38.781-6.812-49.043-2.66C114.913,13.185,92.241,0,66.062,0C29.635,0,0,25.525,0,56.902
	c0,31.376,29.635,56.901,66.062,56.901c36.427,0,66.062-25.525,66.062-56.901c0-0.885-0.031-1.764-0.078-2.639
	c6.415-2.292,21.6-5.429,41.991,3.94v24.449c-27.169,14.033-45.799,42.376-45.799,75.005c0,30.31,16.434,88.298,30.217,131.606
	c1.468,4.608,5.746,7.735,10.581,7.735h87.167c4.835,0,9.113-3.128,10.581-7.735C280.567,245.956,297,187.968,297,157.658
	C297,125.029,278.37,96.687,251.201,82.653z M66.062,91.598c-24.182,0-43.855-15.564-43.855-34.695
	c0-19.133,19.674-34.697,43.855-34.697c24.183,0,43.856,15.564,43.856,34.697C109.918,76.033,90.244,91.598,66.062,91.598z
	 M196.242,39.966h32.753v6.294c-2.219,0.4-4.307,1.466-5.91,3.069c-2.066,2.065-3.253,4.931-3.253,7.851
	c0,2.92,1.188,5.784,3.253,7.849c1.604,1.604,3.691,2.671,5.91,3.071v6.786c-5.301-1.047-10.773-1.608-16.377-1.608
	c-5.603,0-11.075,0.562-16.376,1.608V39.966z M248.064,274.795h-70.889c-17.266-55.232-26.731-96.658-26.731-117.137
	c0-34.283,27.892-62.176,62.175-62.176c34.285,0,62.176,27.893,62.176,62.176C274.794,178.137,265.328,219.563,248.064,274.795z"/>
<g>
</g>
<g>
</g>
<g>
</g>
<g>
</g>
<g>
</g>
<g>
</g>
<g>
</g>
<g>
</g>
<g>
</g>
<g>
</g>
<g>
</g>
<g>
</g>
<g>
</g>
<g>
</g>
<g>
</g>
</svg>
