<?xml version="1.0" encoding="iso-8859-1"?>
<!-- Generator: Adobe Illustrator 19.0.0, SVG Export Plug-In . SVG Version: 6.00 Build 0)  -->
<svg version="1.1" id="Capa_1" xmlns="http://www.w3.org/2000/svg" xmlns:xlink="http://www.w3.org/1999/xlink" x="0px" y="0px"
	 viewBox="0 0 512 512" style="enable-background:new 0 0 512 512;" xml:space="preserve">
<g>
	<g>
		<path d="M399.627,190.211l-48.924-34.942c-2.888-2.066-6.754-2.066-9.642,0l-48.907,34.942c-0.241,0.174-0.473,0.357-0.689,0.548
			l-54.409,48.368l-22.47-50.542l6.572-72.374l38.029-50.7h65.719c2.68,0,5.186-1.294,6.746-3.477l34.934-48.916
			c1.809-2.531,2.05-5.858,0.622-8.621C365.788,1.734,362.942,0,359.831,0h-125.77c-2.207,0-4.315,0.871-5.875,2.431L137.35,93.267
			c-0.714,0.714-1.294,1.552-1.709,2.473L45.543,296.73l-13.044,11.409l10.928,12.497l14.413-12.613
			c0.896-0.788,1.618-1.759,2.108-2.854l90.214-201.247l87.334-87.326H343.7l-23.076,32.303h-65.603
			c-2.614,0-5.078,1.228-6.638,3.319l-41.929,55.902c-0.921,1.236-1.485,2.697-1.626,4.232l-6.987,76.863
			c-0.125,1.411,0.116,2.83,0.689,4.124l27.955,62.889c1.07,2.423,3.236,4.182,5.825,4.738c2.597,0.597,5.286-0.141,7.269-1.9
			l62.565-55.612l43.721-31.241l35.631,25.449l-54.998,48.899l-48.924,41.921c-0.432,0.365-0.813,0.772-1.153,1.211l-46.8,60.176
			l-52.492,6.564c-1.842,0.224-3.551,1.07-4.854,2.381L31.602,500.3L43.369,512L182.05,372.547l53.065-6.63
			c2.191-0.274,4.174-1.402,5.526-3.137l48.393-62.234l48.393-41.472l62.889-55.902c1.892-1.676,2.913-4.124,2.78-6.647
			C402.954,194.003,401.685,191.68,399.627,190.211z"/>
	</g>
</g>
<g>
	<g>
		<path d="M369.854,497.653l-20.056-254.004l-16.546,1.303l19.351,245.059H237.795l11.111-140.698l-16.546-1.311l-11.816,149.651
			c-0.183,2.315,0.614,4.589,2.182,6.29c1.568,1.701,3.776,2.664,6.091,2.664h132.765c2.315,0,4.514-0.963,6.091-2.664
			C369.249,502.242,370.029,499.96,369.854,497.653z"/>
	</g>
</g>
<g>
	<g>
		<path d="M253.71,174.702c-4.331,0-7.933,3.327-8.273,7.642l-4.448,56.359l16.546,1.303l3.842-48.708h55.131v-16.596H253.71z"/>
	</g>
</g>
<g>
	<g>
		<path d="M320.101,124.907h-49.787c-4.589,0-8.298,3.717-8.298,8.298v49.787c0,4.58,3.709,8.298,8.298,8.298h46.194v-13.144h11.891
			v-44.941C328.398,128.624,324.689,124.907,320.101,124.907z M311.794,174.694h-33.191v-33.191h33.191V174.694z"/>
	</g>
</g>
<g>
	<g>
		<path d="M311.794,50.218h-33.191c-4.589,0-8.298,3.717-8.298,8.298v74.68c0,4.58,3.709,8.298,8.298,8.298h33.191
			c4.589,0,8.298-3.717,8.298-8.298v-74.68C320.092,53.936,316.383,50.218,311.794,50.218z M303.497,124.899h-16.596V66.814h16.596
			V124.899z"/>
	</g>
</g>
<g>
	<g>
		<path d="M344.986,66.822h-33.191c-4.589,0-8.298,3.717-8.298,8.298v33.191c0,4.58,3.709,8.298,8.298,8.298h33.191
			c4.589,0,8.298-3.717,8.298-8.298V75.12C353.284,70.54,349.574,66.822,344.986,66.822z M336.688,100.014h-16.596V83.418h16.596
			V100.014z"/>
	</g>
</g>
<g>
	<g>
		<rect x="397.42" y="86.156" width="16.596" height="16.596"/>
	</g>
</g>
<g>
	<g>
		<rect x="430.611" y="86.156" width="16.596" height="16.596"/>
	</g>
</g>
<g>
	<g>
		<rect x="463.802" y="86.156" width="16.596" height="16.596"/>
	</g>
</g>
<g>
	<g>
		
			<rect x="394.657" y="117.882" transform="matrix(0.1736 -0.9848 0.9848 0.1736 208.7378 501.1113)" width="16.595" height="16.595"/>
	</g>
</g>
<g>
	<g>
		
			<rect x="427.324" y="123.605" transform="matrix(0.1738 -0.9848 0.9848 0.1738 230.0163 537.9703)" width="16.596" height="16.596"/>
	</g>
</g>
<g>
	<g>
		
			<rect x="460.008" y="129.349" transform="matrix(0.1736 -0.9848 0.9848 0.1736 251.4511 574.946)" width="16.595" height="16.595"/>
	</g>
</g>
<g>
	<g>
		<rect x="394.635" y="54.439" transform="matrix(0.9849 -0.1729 0.1729 0.9849 -4.7787 70.6147)" width="16.595" height="16.595"/>
	</g>
</g>
<g>
	<g>
		<rect x="427.339" y="48.701" transform="matrix(0.9848 -0.1738 0.1738 0.9848 -3.2764 76.5803)" width="16.596" height="16.596"/>
	</g>
</g>
<g>
	<g>
		<rect x="460.035" y="42.932" transform="matrix(0.9848 -0.1738 0.1738 0.9848 -1.7763 82.1748)" width="16.596" height="16.596"/>
	</g>
</g>
<g>
</g>
<g>
</g>
<g>
</g>
<g>
</g>
<g>
</g>
<g>
</g>
<g>
</g>
<g>
</g>
<g>
</g>
<g>
</g>
<g>
</g>
<g>
</g>
<g>
</g>
<g>
</g>
<g>
</g>
</svg>
