<svg height="460pt" viewBox="0 0 460 460.8606" width="460pt" xmlns="http://www.w3.org/2000/svg"><path d="m344.160156 0c-31.082031-.0859375-60.90625 12.269531-82.824218 34.308594l-226.832032 226.828125c-45.523437 45.78125-45.417968 119.765625.234375 165.417969 45.652344 45.648437 119.632813 45.753906 165.414063.234374l226.832031-226.832031c33.496094-33.5 43.519531-83.878906 25.390625-127.648437-18.128906-43.769532-60.839844-72.308594-108.214844-72.308594zm-103.179687 357.675781-137.363281-137.367187 116.890624-116.886719 137.363282 137.363281zm-54.96875 54.972657c-37.933594 37.933593-99.433594 37.933593-137.367188 0-37.933593-37.933594-37.933593-99.433594 0-137.367188l40.828125-40.832031 137.371094 137.367187zm226.832031-226.835938-40.832031 40.835938-137.367188-137.371094 40.832031-40.828125c37.933594-37.933594 99.433594-37.933594 137.367188 0 37.933594 37.929687 37.933594 99.433593 0 137.363281zm0 0"/><path d="m254.195312 207.097656c-3.90625-3.90625-10.238281-3.90625-14.144531 0l-32.757812 32.757813c-2.542969 2.523437-3.542969 6.214843-2.621094 9.675781s3.625 6.167969 7.085937 7.089844c3.464844.921875 7.15625-.078125 9.675782-2.625l32.761718-32.757813c3.902344-3.902343 3.902344-10.234375 0-14.140625zm0 0"/><path d="m221.433594 174.339844c-3.902344-3.90625-10.234375-3.90625-14.140625 0l-32.757813 32.757812c-3.90625 3.90625-3.90625 10.238282 0 14.140625 3.90625 3.90625 10.238282 3.90625 14.140625 0l32.757813-32.757812c3.90625-3.90625 3.90625-10.238281 0-14.140625zm0 0"/><path d="m286.953125 239.855469c-3.90625-3.90625-10.238281-3.90625-14.144531 0l-32.757813 32.757812c-3.90625 3.90625-3.90625 10.238281 0 14.144531 3.90625 3.902344 10.238281 3.902344 14.144531 0l32.757813-32.761718c3.90625-3.902344 3.90625-10.234375 0-14.140625zm0 0"/></svg>