<svg height="566pt" viewBox="-17 -17 566.67022 566" width="566pt" xmlns="http://www.w3.org/2000/svg"><path d="m103.210938 253.164062 175.203124 175.207032 149.613282-149.617188-175.203125-175.199218zm230.894531 26.195313c3.902343 3.90625 3.902343 10.238281 0 14.140625l-40.949219 40.945312c-3.90625 3.90625-10.230469 3.90625-14.136719 0s-3.90625-10.234374 0-14.140624l40.9375-40.9375c1.875-1.875 4.417969-2.9375 7.074219-2.9375 2.648438 0 5.199219 1.054687 7.074219 2.929687zm-40.941407-40.9375c3.902344 3.90625 3.902344 10.234375 0 14.136719l-40.9375 40.941406c-3.90625 3.902344-10.234374 3.902344-14.140624 0s-3.90625-10.234375 0-14.140625l40.9375-40.9375c3.90625-3.898437 10.230468-3.898437 14.132812 0zm-40.945312-26.800781-40.9375 40.9375c-3.90625 3.90625-10.234375 3.90625-14.140625 0-3.902344-3.898438-3.902344-10.230469 0-14.136719l40.941406-40.9375c3.902344-3.90625 10.234375-3.90625 14.136719 0 3.90625 3.90625 3.90625 10.230469 0 14.136719zm0 0"/><path d="m36.28125 320.097656c-48.382812 48.378906-48.382812 126.824219 0 175.203125 48.382812 48.382813 126.820312 48.382813 175.199219 0l52.789062-52.792969-175.199219-175.199218zm0 0"/><path d="m407.359375.335938c-32.878906-.089844-64.425781 12.976562-87.609375 36.285156l-52.785156 52.792968 175.199218 175.199219 52.792969-52.792969c35.429688-35.429687 46.03125-88.714843 26.855469-135.007812s-64.351562-76.476562-114.457031-76.476562zm0 0"/></svg>