<svg height="472pt" viewBox="-15 -15 472.00007 472" width="472pt" xmlns="http://www.w3.org/2000/svg"><path d="m442.496094 94.019531c-.386719-37.996093-23.476563-72.066406-58.628906-86.503906-35.140626-14.441406-75.515626-6.441406-102.503907 20.308594l-60.078125 60.078125-60.664062-60.664063c-36.40625-36.40625-96.144532-36.433593-133.222656 0-36.53125 36.898438-36.53125 96.335938 0 133.226563l60.664062 60.660156-60.664062 60.660156c-36.554688 36.828125-36.445313 96.285156.25 132.976563 36.691406 36.691406 96.148437 36.804687 132.972656.25l60.664062-60.664063 60.078125 60.082032c36.792969 36.785156 96.4375 36.785156 133.222657-.003907 36.789062-36.785156 36.789062-96.429687 0-133.222656l-60.078126-60.078125 60.65625-60.660156c17.671876-17.574219 27.519532-41.523438 27.332032-66.445313zm-402.75 54.101563c-29.699219-30.054688-29.722656-78.398438-.054688-108.480469 14.542969-14.308594 34.136719-22.316406 54.539063-22.289063 20.253906-.070312 39.707031 7.929688 54.046875 22.234376l60.664062 60.660156-108.535156 108.539062zm181.539062-35.535156 108.535156 108.539062-108.535156 108.539062-108.539062-108.539062zm-73.007812 290.078124c-29.96875 29.972657-78.5625 29.976563-108.53125.003907-29.972656-29.96875-29.972656-78.566407 0-108.539063l60.660156-60.664062 108.535156 108.539062zm253.96875-109.113281c29.96875 29.972657 29.96875 78.5625 0 108.535157-29.972656 29.972656-78.570313 29.972656-108.539063 0l-60.082031-60.082032 108.539062-108.539062zm-60.082032-84.765625-108.539062-108.539062 60.082031-60.082032c21.988281-21.808593 54.894531-28.335937 83.542969-16.566406 28.648438 11.761719 47.472656 39.53125 47.792969 70.496094.15625 20.265625-7.851563 39.738281-22.21875 54.027344zm0 0"/><path d="m201.964844 222.996094c-.128906-7.085938-3.136719-13.8125-8.339844-18.625-9.238281-8.71875-23.347656-9.703125-33.707031-2.34375-10.351563 7.359375-14.070313 21.007812-8.878907 32.597656 5.191407 11.589844 17.851563 17.902344 30.234376 15.078125 12.386718-2.828125 21.046874-14.011719 20.691406-26.707031zm-20.558594 7.648437c-3.777344 3.625-9.765625 3.542969-13.441406-.183593-3.671875-3.726563-3.671875-9.710938 0-13.441407 3.675781-3.726562 9.664062-3.804687 13.441406-.179687.082031.078125.167969.160156.25.238281 1.78125 1.601563 2.820312 3.871094 2.859375 6.269531.003906 2.753906-1.117187 5.390625-3.109375 7.296875zm0 0"/><path d="m237.792969 287.277344c5.328125-5.03125 8.34375-12.039063 8.34375-19.367188 0-7.332031-3.015625-14.339844-8.34375-19.375-10.640625-10.382812-27.660157-10.246094-38.128907.304688-10.46875 10.554687-10.46875 27.582031 0 38.136718 10.46875 10.554688 27.488282 10.691407 38.128907.300782zm-26.03125-12.46875c-3.632813-3.839844-3.542969-9.875.191406-13.617188 3.742187-3.738281 9.773437-3.820312 13.621094-.1875.078125.082032.167969.160156.25.242188 1.824219 1.734375 2.859375 4.140625 2.859375 6.664062 0 2.515625-1.035156 4.921875-2.859375 6.660156-.089844.078126-.171875.15625-.25.238282-3.917969 3.550781-9.890625 3.550781-13.8125.007812zm0 0"/><path d="m223.898438 201.375c10.925781-.070312 20.753906-6.675781 24.945312-16.765625 4.199219-10.09375 1.953125-21.714844-5.695312-29.515625-8.671876-8.835938-22.203126-10.710938-32.949219-4.566406-10.742188 6.144531-15.988281 18.757812-12.769531 30.710937 3.21875 11.949219 14.09375 20.226563 26.46875 20.136719zm-6.90625-33.941406c3.328124-3.644532 8.777343-4.410156 12.976562-1.808594 4.199219 2.59375 5.949219 7.816406 4.167969 12.417969-1.78125 4.601562-6.59375 7.285156-11.445313 6.378906-4.851562-.90625-8.371094-5.140625-8.371094-10.082031-.050781-2.558594.910157-5.039063 2.671876-6.90625zm0 0"/><path d="m241.035156 218.503906c.046875 10.910156 6.605469 20.738282 16.667969 24.957032 10.058594 4.222656 21.667969 2.023437 29.484375-5.582032 5.203125-4.8125 8.21875-11.539062 8.34375-18.625.335938-9.863281-4.6875-19.132812-13.132812-24.242187-8.441407-5.109375-18.992188-5.257813-27.570313-.382813-8.582031 4.875-13.859375 14.007813-13.792969 23.875zm20.128906-6.898437c3.910157-3.566407 9.894532-3.566407 13.804688 0 1.996094 1.902343 3.117188 4.542969 3.113281 7.296875-.039062 2.398437-1.078125 4.667968-2.859375 6.265625-.082031.082031-.171875.160156-.25.242187-3.917968 3.550782-9.890625 3.550782-13.804687 0-3.570313-3.910156-3.570313-9.894531 0-13.8125zm0 0"/></svg>