<?xml version="1.0" encoding="iso-8859-1"?>
<!-- Generator: Adobe Illustrator 19.0.0, SVG Export Plug-In . SVG Version: 6.00 Build 0)  -->
<svg version="1.1" id="Layer_1" xmlns="http://www.w3.org/2000/svg" xmlns:xlink="http://www.w3.org/1999/xlink" x="0px" y="0px"
	 viewBox="0 0 473.931 473.931" style="enable-background:new 0 0 473.931 473.931;" xml:space="preserve">
<circle style="fill:#49A0AE;" cx="236.966" cy="236.966" r="236.966"/>
<path style="fill:#E4AB6E;" d="M165.723,400.787c-11.921,11.921-31.244,11.921-43.154,0.007L73.114,351.34
	c-11.921-11.914-11.914-31.244,0-43.154L308.186,73.118c11.914-11.917,31.236-11.921,43.154,0l49.447,49.447
	c11.921,11.921,11.914,31.244,0,43.154L165.723,400.787z"/>
<path style="fill:#DDA166;" d="M165.723,400.787c-11.921,11.921-31.244,11.921-43.154,0.007l-28.284-28.284L374.823,96.362
	l25.964,26.2c11.921,11.921,11.914,31.244,0,43.154L165.723,400.787z"/>
<path style="fill:#EBB677;" d="M241.609,329.309c-2.092,2.099-5.489,2.099-7.585,0l-88.538-88.541
	c-2.099-2.099-2.099-5.497-0.007-7.588l88.545-88.541c2.099-2.099,5.497-2.099,7.592,0l88.538,88.541
	c2.099,2.095,2.099,5.493,0,7.588L241.609,329.309z"/>
<path style="fill:#E4B076;" d="M241.493,329.118c-2.092,2.095-5.489,2.095-7.585,0l-47.401-47.356l96.758-95.553l46.772,46.776
	c2.099,2.095,2.099,5.493,0,7.588L241.493,329.118z"/>
<g>
	<circle style="fill:#FBF0E6;" cx="236.404" cy="192.326" r="10.163"/>
	<circle style="fill:#FBF0E6;" cx="282.129" cy="238.088" r="10.163"/>
	<circle style="fill:#FBF0E6;" cx="192.289" cy="236.442" r="10.163"/>
	<circle style="fill:#FBF0E6;" cx="238.051" cy="282.166" r="10.163"/>
</g>
<g>
</g>
<g>
</g>
<g>
</g>
<g>
</g>
<g>
</g>
<g>
</g>
<g>
</g>
<g>
</g>
<g>
</g>
<g>
</g>
<g>
</g>
<g>
</g>
<g>
</g>
<g>
</g>
<g>
</g>
</svg>
