<svg height="512pt" viewBox="-81 0 512 512" width="512pt" xmlns="http://www.w3.org/2000/svg"><path d="m324.5 218.5v-7.855469c14.851562-7.199219 24.5-22.308593 24.5-39.144531v-128c0-23.984375-19.515625-43.5-43.5-43.5h-66c-8.546875 0-15.5 6.953125-15.5 15.5v9.5h-99v-9.5c0-8.546875-6.953125-15.5-15.5-15.5h-66c-23.984375 0-43.5 19.515625-43.5 43.5v20.5c0 4.144531 3.355469 7.5 7.5 7.5s7.5-3.355469 7.5-7.5v-20.5c0-15.714844 12.785156-28.5 28.5-28.5h66c.273438 0 .5.226562.5.5v9.71875c-24.089844 2.273438-43 22.609375-43 47.28125v67.003906c-23.988281 3.410156-42.5 24.078125-42.5 48.996094v4.246094c-5.914062-5.292969-9.5-12.945313-9.5-21.246094v-75.832031c0-4.144531-3.355469-7.5-7.5-7.5s-7.5 3.355469-7.5 7.5v75.832031c0 16.835938 9.648438 31.945312 24.5 39.144531v7.855469c0 21.5625 6.628906 41.601562 17.953125 58.195312l2.707031 26.695313c-24.636718 22.753906-38.160156 51.417969-38.160156 81.109375 0 23.632812 8.414062 46.449219 24.394531 66.386719-5.242187 6.453125-8.394531 14.671875-8.394531 23.613281v20c0 9.648438 7.851562 17.5 17.5 17.5h108c1.976562 0 3.867188-.34375 5.640625-.949219 6.742187.621094 13.578125.949219 20.359375.949219s13.617188-.328125 20.359375-.949219c1.773437.605469 3.664063.949219 5.640625.949219h108c9.648438 0 17.5-7.851562 17.5-17.5v-20c0-8.949219-3.15625-17.171875-8.40625-23.625 2.25-2.808594 4.375-5.675781 6.320312-8.589844 2.300782-3.445312 1.367188-8.105468-2.074218-10.402344-3.445313-2.296874-8.105469-1.367187-10.402344 2.078126-1.671875 2.503906-3.496094 4.972656-5.429688 7.390624-4.730468-2.507812-10.058593-4.039062-15.710937-4.304687l11.582031-114.289063c16.292969 18.265626 25.121094 39.75 25.121094 61.742188 0 7.632812-1.046875 15.261719-3.113281 22.664062-1.109375 3.992188 1.222656 8.128907 5.210937 9.242188.675782.1875 1.351563.277344 2.019532.277344 3.28125 0 6.296874-2.171875 7.222656-5.488282 2.429687-8.71875 3.660156-17.699218 3.660156-26.695312 0-29.691406-13.523438-58.355469-38.160156-81.109375l2.707031-26.695313c11.324219-16.59375 17.953125-36.632812 17.953125-58.195312zm-134 172.449219h-32c-20.679688 0-37.5 18.121093-37.5 40.390625v5.660156h-47.222656l-4.917969-48.511719h211.277344l-4.914063 48.511719h-47.222656v-5.660156c0-22.269532-16.820312-40.390625-37.5-40.390625zm98.058594-85.523438c-.011719.0625-.015625.128907-.023438.191407l-2.527344 24.953124h-156.269531c-4.140625 0-7.5 3.355469-7.5 7.5 0 4.144532 3.359375 7.5 7.5 7.5h154.75l-2.832031 27.917969h-214.3125l-2.832031-27.917969h32.976562c4.144531 0 7.5-3.355468 7.5-7.5 0-4.144531-3.355469-7.5-7.5-7.5h-34.496093l-3.503907-34.5625c18.265625 16.164063 42.261719 25.992188 68.511719 25.992188h93c26.25 0 50.246094-9.828125 68.511719-25.992188zm-49.058594-290.425781h66c15.714844 0 28.5 12.785156 28.5 28.5v128c0 8.300781-3.585938 15.953125-9.5 21.246094v-4.246094c0-24.917969-18.511719-45.585938-42.5-48.996094v-67.003906c0-24.671875-18.910156-45.007812-43-47.28125v-9.71875c0-.273438.226562-.5.5-.5zm-5 25c17.921875 0 32.5 14.578125 32.5 32.5v38.390625c-18.4375-20.691406-33.152344-44.945313-43.027344-70.890625zm-26.492188 0c11.167969 31.570312 29.03125 60.988281 51.902344 85.363281l7.089844 7.554688v6.082031h-47.488281l-7.273438-7.75c-22.171875-23.636719-38.144531-52.722656-46.1875-84.113281l-1.828125-7.136719zm-48.507812 152c-6.894531 0-12.5-5.605469-12.5-12.5v-30c0-6.894531 5.605469-12.5 12.5-12.5h30c6.894531 0 12.5 5.605469 12.5 12.5v30c0 6.894531-5.605469 12.5-12.5 12.5zm-45-152h34.238281l2.78125 10.859375c6.570313 25.632813 18.050781 49.835937 33.617188 71.140625h-25.636719c-11.445312 0-21.277344 7.03125-25.410156 17h-52.089844v-66.5c0-17.921875 14.578125-32.5 32.5-32.5zm-75 148.5c0-19.023438 15.476562-34.5 34.5-34.5h58v25.5c0 15.164062 12.335938 27.5 27.5 27.5h7.5v34.183594h-37.800781c-15 0-27.199219 12.199218-27.199219 27.195312 0 4.144532 3.355469 7.5 7.5 7.5s7.5-3.355468 7.5-7.5c0-6.722656 5.472656-12.195312 12.199219-12.195312h90.601562c6.726563 0 12.199219 5.472656 12.199219 12.195312 0 4.144532 3.355469 7.5 7.5 7.5s7.5-3.355468 7.5-7.5c0-14.996094-12.199219-27.195312-27.199219-27.195312h-37.800781v-34.183594h7.5c15.164062 0 27.5-12.335938 27.5-27.5v-25.5h58c19.023438 0 34.5 15.476562 34.5 34.5v30c0 18.726562-5.851562 36.109375-15.816406 50.429688-.375.417968-.707032.878906-.980469 1.378906-16.09375 22.210937-42.238281 36.691406-71.703125 36.691406h-93c-29.464844 0-55.605469-14.476562-71.699219-36.6875-.277343-.503906-.613281-.96875-.992187-1.394531-9.960938-14.316407-15.808594-31.695313-15.808594-50.417969zm7.621094 134.257812 11.585937 114.289063c-5.652343.265625-10.980469 1.792969-15.710937 4.300781-13.742188-17.21875-20.996094-36.746094-20.996094-56.847656 0-21.992188 8.828125-43.476562 25.121094-61.742188zm-9.121094 171.742188v-20c0-12.40625 10.09375-22.5 22.5-22.5h68c12.40625 0 22.5 10.09375 22.5 22.5v20c0 1-.59375 1.859375-1.445312 2.257812-.03125.015626-.0625.03125-.09375.046876-.296876.125-.621094.195312-.960938.195312h-23.5v-14.5c0-4.144531-3.355469-7.5-7.5-7.5s-7.5 3.355469-7.5 7.5v14.5h-31v-14.5c0-4.144531-3.355469-7.5-7.5-7.5s-7.5 3.355469-7.5 7.5v14.5h-23.5c-1.378906 0-2.5-1.121094-2.5-2.5zm127.832031 2.300781c.097657-.753906.167969-1.519531.167969-2.300781v-20c0-18.109375-12.902344-33.261719-30-36.746094v-6.414062c0-14 10.09375-25.390625 22.5-25.390625h32c12.40625 0 22.5 11.390625 22.5 25.390625v6.414062c-17.097656 3.484375-30 18.636719-30 36.746094v20c0 .78125.070312 1.546875.167969 2.300781-5.769531.238281-11.566407.238281-17.335938 0zm145.167969-2.300781c0 1.378906-1.121094 2.5-2.5 2.5h-23.5v-14.5c0-4.144531-3.355469-7.5-7.5-7.5s-7.5 3.355469-7.5 7.5v14.5h-31v-14.5c0-4.144531-3.355469-7.5-7.5-7.5s-7.5 3.355469-7.5 7.5v14.5h-23.5c-.339844 0-.664062-.070312-.960938-.195312-.03125-.015626-.0625-.03125-.09375-.046876-.851562-.398437-1.445312-1.257812-1.445312-2.257812v-20c0-12.40625 10.09375-22.5 22.5-22.5h68c12.40625 0 22.5 10.09375 22.5 22.5zm0 0"/><path d="m121.5 116c12.40625 0 22.5-11.4375 22.5-25.5s-10.09375-25.5-22.5-25.5-22.5 11.4375-22.5 25.5 10.09375 25.5 22.5 25.5zm0-36c4.066406 0 7.5 4.808594 7.5 10.5s-3.433594 10.5-7.5 10.5-7.5-4.808594-7.5-10.5 3.433594-10.5 7.5-10.5zm0 0"/><path d="m110 175.5c0 4.140625-3.359375 7.5-7.5 7.5s-7.5-3.359375-7.5-7.5 3.359375-7.5 7.5-7.5 7.5 3.359375 7.5 7.5zm0 0"/><path d="m110 206.5c0 4.140625-3.359375 7.5-7.5 7.5s-7.5-3.359375-7.5-7.5 3.359375-7.5 7.5-7.5 7.5 3.359375 7.5 7.5zm0 0"/><path d="m254 175.5c0 4.140625-3.359375 7.5-7.5 7.5s-7.5-3.359375-7.5-7.5 3.359375-7.5 7.5-7.5 7.5 3.359375 7.5 7.5zm0 0"/><path d="m254 206.5c0 4.140625-3.359375 7.5-7.5 7.5s-7.5-3.359375-7.5-7.5 3.359375-7.5 7.5-7.5 7.5 3.359375 7.5 7.5zm0 0"/></svg>