<?xml version="1.0" encoding="iso-8859-1"?>
<!-- Generator: Adobe Illustrator 19.0.0, SVG Export Plug-In . SVG Version: 6.00 Build 0)  -->
<svg version="1.1" id="Capa_1" xmlns="http://www.w3.org/2000/svg" xmlns:xlink="http://www.w3.org/1999/xlink" x="0px" y="0px"
	 viewBox="0 0 512 512" style="enable-background:new 0 0 512 512;" xml:space="preserve">
<path style="fill:#89E4D0;" d="M471.467,468.257l-3.21,3.21c-40.71,40.71-106.715,40.71-147.425,0L40.533,191.168
	c-40.71-40.71-40.71-106.715,0-147.425l3.21-3.21c40.71-40.71,106.715-40.71,147.425,0l280.299,280.299
	C512.177,361.542,512.177,427.547,471.467,468.257z"/>
<path d="M456.42,379.31c-0.65,0-1.31-0.06-1.95-0.19s-1.27-0.32-1.87-0.57c-0.609-0.25-1.189-0.56-1.73-0.92
	c-0.551-0.36-1.06-0.78-1.52-1.24s-0.88-0.979-1.24-1.52c-0.359-0.551-0.67-1.13-0.92-1.73s-0.44-1.229-0.569-1.87
	c-0.13-0.649-0.2-1.3-0.2-1.95c0-0.659,0.07-1.31,0.2-1.96c0.12-0.64,0.319-1.26,0.569-1.869c0.25-0.601,0.551-1.181,0.92-1.721
	c0.36-0.55,0.78-1.069,1.24-1.529c0.46-0.461,0.97-0.87,1.52-1.24c0.54-0.36,1.12-0.67,1.73-0.92c0.601-0.25,1.23-0.441,1.87-0.57
	c1.29-0.26,2.61-0.26,3.9,0c0.64,0.13,1.27,0.32,1.87,0.57c0.609,0.25,1.189,0.559,1.729,0.92c0.55,0.37,1.061,0.779,1.521,1.24
	c0.46,0.46,0.88,0.979,1.239,1.529c0.36,0.54,0.67,1.12,0.92,1.721c0.25,0.609,0.45,1.229,0.57,1.869c0.13,0.65,0.2,1.301,0.2,1.96
	c0,0.65-0.07,1.301-0.2,1.95c-0.13,0.641-0.32,1.271-0.57,1.87c-0.25,0.601-0.56,1.18-0.92,1.73c-0.359,0.54-0.779,1.06-1.239,1.52
	c-0.46,0.46-0.971,0.88-1.521,1.24c-0.54,0.36-1.12,0.67-1.729,0.92c-0.601,0.25-1.23,0.44-1.87,0.57
	C457.729,379.25,457.069,379.31,456.42,379.31z"/>
<path style="fill:#00CAB0;" d="M43.743,471.467l-3.21-3.21c-40.71-40.71-40.71-106.715,0-147.425L320.832,40.533
	c40.71-40.71,106.715-40.71,147.425,0l3.21,3.21c40.71,40.71,40.71,106.715,0,147.425L191.168,471.467
	C150.458,512.177,84.453,512.177,43.743,471.467z"/>
<rect x="149.486" y="149.484" transform="matrix(0.7071 0.7071 -0.7071 0.7071 255.9984 -106.0393)" style="fill:#F7EDC2;" width="213.028" height="213.028"/>
<path style="fill:#FCAD81;" d="M185.112,290.137c5.693,5.693,14.217,7.198,20.702,7.406c4.677,0.15,8.383,3.912,8.491,8.591
	c0.147,6.398,1.642,14.838,7.56,20.756c10.464,10.464,27.641,10.379,38.65,0.488c6.219-5.589,8.809-11.985,10.197-18.736
	c1.394-6.785,1.548-23.965,1.356-39.367c-0.201-16.156-13.262-29.207-29.418-29.393c-15.35-0.177-32.465-0.003-39.292,1.407
	c-6.775,1.401-13.147,3.978-18.735,10.198C174.732,262.495,174.647,279.672,185.112,290.137"/>
<path d="M241.22,344.832c-9.642,0.001-19.19-3.636-26.427-10.871c-6.378-6.38-9.979-15.515-10.448-26.471
	c-11.054-0.564-20.13-4.108-26.303-10.282l0,0c-0.001-0.001-0.001-0.001-0.001-0.001c-14.16-14.158-14.536-37.177-0.857-52.404
	c8.222-9.151,17.72-11.978,24.148-13.308c2.372-0.489,9.584-1.986,41.433-1.612c21.404,0.245,39.035,17.86,39.302,39.268
	c0.397,31.979-1.076,39.148-1.561,41.505c-1.32,6.424-4.137,15.918-13.307,24.159C259.753,341.504,250.444,344.832,241.22,344.832z
	 M233.325,249.825c-19.528,0-25.981,0.851-27.945,1.256c-6.063,1.255-9.923,3.308-13.318,7.088
	c-6.465,7.196-6.41,18.365,0.121,24.896c0.001,0,0.001,0.001,0.001,0.001c3.626,3.626,10.297,4.364,13.95,4.482
	c9.958,0.318,17.939,8.381,18.168,18.356c0.1,4.333,0.985,10.266,4.634,13.915c6.53,6.529,17.698,6.584,24.896,0.118
	c3.787-3.403,5.84-7.26,7.084-13.31c0.458-2.228,1.486-10.315,1.152-37.229c-0.133-10.64-8.895-19.396-19.534-19.518
	C239.182,249.843,236.118,249.825,233.325,249.825z"/>
<path style="fill:#AD826E;" d="M257.86,217.558c6.648,6.648,19.313,4.797,28.236-4.126s10.774-21.588,4.126-28.236
	c-6.65-6.65-19.315-4.798-28.237,4.124C253.062,198.244,251.21,210.908,257.86,217.558L257.86,217.558z"/>
<path d="M268.279,231.616c-6.589,0-12.795-2.292-17.49-6.986c-10.726-10.726-8.914-29.341,4.124-42.38
	c5.828-5.827,13.143-9.637,20.597-10.726c8.415-1.23,16.358,1.177,21.783,6.603c5.425,5.423,7.83,13.362,6.6,21.781
	c-1.089,7.454-4.898,14.769-10.726,20.596C285.836,227.835,276.742,231.616,268.279,231.616z M279.832,191.208
	c-0.578,0-1.09,0.057-1.431,0.107c-3.177,0.464-6.583,2.314-9.346,5.078c-2.764,2.763-4.614,6.169-5.078,9.345
	c-0.146,0.996-0.344,3.452,0.954,4.75c1.295,1.295,3.753,1.098,4.747,0.952c3.177-0.464,6.583-2.314,9.346-5.078
	c2.764-2.763,4.614-6.17,5.079-9.346c0.146-0.996,0.344-3.451-0.952-4.747C282.298,191.415,280.943,191.208,279.832,191.208z"/>
<path style="fill:#AD826E;" d="M294.443,254.141c6.642,6.642,19.313,4.797,28.236-4.126c8.923-8.923,10.768-21.594,4.126-28.236
	c-6.65-6.65-19.315-4.798-28.237,4.124C289.645,234.827,287.794,247.492,294.443,254.141L294.443,254.141z"/>
<path d="M304.862,268.199c-6.589,0-12.795-2.292-17.49-6.986c-10.726-10.726-8.914-29.341,4.124-42.38
	c5.828-5.827,13.143-9.637,20.597-10.726c8.424-1.23,16.359,1.178,21.783,6.603c10.725,10.724,8.912,29.339-4.126,42.377
	C322.419,264.418,313.325,268.199,304.862,268.199z M316.416,227.791c-0.578,0-1.091,0.057-1.432,0.107
	c-3.177,0.464-6.583,2.314-9.346,5.078c-2.764,2.763-4.614,6.169-5.078,9.346c-0.145,0.995-0.344,3.452,0.954,4.749
	c1.293,1.293,3.748,1.096,4.747,0.95c3.178-0.464,6.584-2.314,9.346-5.076c2.762-2.762,4.612-6.168,5.076-9.346
	c0.146-0.997,0.344-3.454-0.95-4.747C318.881,227.998,317.526,227.791,316.416,227.791z"/>
<path style="fill:#AD826E;" d="M328.938,280.777c-4.199-6.259-13.97-6.805-22.26-1.242c-8.281,5.557-11.481,14.806-7.281,21.065
	c4.195,6.251,13.972,6.804,22.253,1.247C329.939,296.284,333.132,287.029,328.938,280.777L328.938,280.777z"/>
<path d="M309.928,315.665c-7.645,0-14.642-3.244-18.835-9.493c-3.765-5.61-4.563-12.768-2.188-19.636
	c2.067-5.978,6.4-11.413,12.2-15.305c5.806-3.895,12.48-5.844,18.794-5.492c7.256,0.404,13.577,3.855,17.342,9.467
	c7.322,10.911,2.92,26.262-10.021,34.945C321.693,313.86,315.631,315.665,309.928,315.665z M318.41,285.697
	c-1.893,0-4.114,0.768-6.16,2.142c-2.179,1.462-3.798,3.369-4.442,5.233c-0.233,0.675-0.384,1.543-0.107,1.955
	c0.555,0.826,4.18,1.332,8.377-1.483c4.203-2.82,5.112-6.367,4.557-7.194v-0.001c-0.276-0.412-1.137-0.602-1.85-0.641
	C318.661,285.701,318.536,285.697,318.41,285.697z"/>
<path style="fill:#AD826E;" d="M231.223,183.062c-6.251-4.195-15.507-1.002-21.07,7.289c-5.556,8.281-5.004,18.058,1.248,22.253
	c6.259,4.2,15.508,1,21.065-7.281C238.028,197.032,237.481,187.262,231.223,183.062L231.223,183.062z"/>
<path d="M217.631,224.439c-4.238,0.001-8.318-1.193-11.803-3.531c-10.911-7.321-12.66-23.19-3.979-36.127
	c8.683-12.941,24.031-17.343,34.946-10.021h-0.001c5.611,3.765,9.063,10.086,9.467,17.342c0.353,6.315-1.598,12.989-5.492,18.794
	c-3.892,5.8-9.327,10.133-15.305,12.2C222.861,223.994,220.216,224.439,217.631,224.439z M225.004,191.219
	c-1.374,0-4.21,1.222-6.548,4.705c-2.816,4.197-2.312,7.82-1.483,8.376c0.41,0.276,1.281,0.127,1.955-0.107
	c1.864-0.645,3.771-2.264,5.233-4.442c1.464-2.183,2.241-4.564,2.131-6.534c-0.039-0.713-0.229-1.573-0.641-1.85c0,0,0,0-0.001,0
	C225.509,191.271,225.287,191.219,225.004,191.219z"/>
<path d="M55.41,379.149c-0.65,0-1.301-0.069-1.95-0.199c-0.641-0.12-1.271-0.32-1.87-0.57c-0.6-0.25-1.18-0.55-1.73-0.91
	c-0.54-0.37-1.06-0.79-1.52-1.25s-0.88-0.97-1.24-1.52c-0.359-0.54-0.67-1.12-0.92-1.721c-0.25-0.609-0.439-1.239-0.57-1.88
	c-0.13-0.64-0.19-1.3-0.19-1.95c0-0.649,0.06-1.31,0.19-1.949c0.131-0.641,0.32-1.271,0.57-1.87c0.25-0.61,0.561-1.191,0.92-1.73
	c0.36-0.55,0.78-1.06,1.24-1.52c0.46-0.46,0.979-0.88,1.52-1.24c0.551-0.36,1.131-0.67,1.73-0.92c0.6-0.25,1.229-0.44,1.87-0.57
	c1.29-0.26,2.62-0.26,3.91,0c0.64,0.13,1.27,0.32,1.87,0.57s1.18,0.56,1.729,0.92c0.54,0.36,1.05,0.78,1.521,1.24
	c0.46,0.46,0.88,0.97,1.239,1.52c0.36,0.54,0.67,1.12,0.92,1.73c0.25,0.6,0.44,1.229,0.57,1.87c0.13,0.64,0.19,1.3,0.19,1.949
	c0,0.65-0.061,1.311-0.19,1.95c-0.13,0.641-0.32,1.27-0.57,1.88c-0.25,0.601-0.56,1.181-0.92,1.721
	c-0.37,0.55-0.779,1.06-1.239,1.52c-0.471,0.46-0.98,0.88-1.521,1.25c-0.55,0.36-1.13,0.66-1.729,0.91
	c-0.601,0.25-1.23,0.45-1.87,0.57C56.72,379.08,56.069,379.149,55.41,379.149z"/>
<path d="M420.777,256l57.761-57.761C500.116,176.661,512,147.972,512,117.455c0-30.516-11.884-59.205-33.462-80.783l-3.21-3.21
	C453.75,11.884,425.06,0,394.545,0c-30.517,0-59.206,11.884-80.784,33.462L256,91.223l-57.761-57.761
	C176.661,11.884,147.972,0,117.455,0C86.939,0,58.25,11.884,36.672,33.462l-3.21,3.21C11.884,58.25,0,86.939,0,117.455
	c0,30.517,11.884,59.206,33.462,80.784L91.223,256l-57.761,57.761C11.884,335.339,0,364.028,0,394.545
	c0,30.516,11.884,59.205,33.462,80.783l3.21,3.21C58.25,500.116,86.939,512,117.455,512c30.517,0,59.206-11.884,80.784-33.462
	L256,420.777l57.761,57.761C335.339,500.116,364.028,512,394.545,512c30.516,0,59.205-11.884,80.783-33.462l3.21-3.21
	C500.116,453.75,512,425.06,512,394.545c0-30.517-11.884-59.206-33.462-80.784L420.777,256z M327.903,47.604
	C345.703,29.804,369.37,20,394.545,20c25.174,0,48.841,9.804,66.641,27.604l3.21,3.21c17.8,17.8,27.604,41.467,27.604,66.641
	c0,25.175-9.804,48.842-27.604,66.642l-57.761,57.761L301.743,136.966l74.479-74.48c3.905-3.905,3.905-10.237,0-14.143
	c-3.906-3.904-10.236-3.904-14.143,0l-74.48,74.479l-17.458-17.458L327.903,47.604z M392.492,256L256,392.492L119.508,256
	L256,119.508L392.492,256z M47.604,184.097C29.804,166.297,20,142.63,20,117.455c0-25.174,9.804-48.841,27.604-66.641l3.21-3.21
	C68.614,29.804,92.281,20,117.455,20c25.175,0,48.842,9.804,66.642,27.604l57.761,57.761l-17.624,17.624l-74.479-74.48
	c-3.905-3.902-10.235-3.904-14.143,0c-3.905,3.905-3.905,10.237,0,14.143l74.479,74.48L105.365,241.857L47.604,184.097z
	 M184.097,464.396c-17.8,17.8-41.467,27.604-66.642,27.604c-25.174,0-48.841-9.804-66.641-27.604l-3.21-3.21
	C29.804,443.386,20,419.719,20,394.545c0-25.175,9.804-48.842,27.604-66.642l57.761-57.761l17.458,17.458l-49.566,49.566
	c-3.905,3.905-3.905,10.237,0,14.143c1.953,1.952,4.512,2.929,7.071,2.929c2.56,0,5.118-0.977,7.071-2.929l49.566-49.566
	l104.892,104.892L184.097,464.396z M464.396,461.185l-3.21,3.21C443.386,482.196,419.719,492,394.545,492
	c-25.175,0-48.842-9.804-66.642-27.604l-57.761-57.761l104.727-104.727l49.565,49.566c1.953,1.952,4.512,2.929,7.071,2.929
	c2.559,0,5.118-0.977,7.071-2.929c3.905-3.905,3.905-10.237,0-14.143l-49.565-49.566l17.623-17.623l57.761,57.761
	C482.196,345.703,492,369.37,492,394.545C492,419.719,482.196,443.386,464.396,461.185z"/>
<g>
</g>
<g>
</g>
<g>
</g>
<g>
</g>
<g>
</g>
<g>
</g>
<g>
</g>
<g>
</g>
<g>
</g>
<g>
</g>
<g>
</g>
<g>
</g>
<g>
</g>
<g>
</g>
<g>
</g>
</svg>
