<?xml version="1.0" encoding="iso-8859-1"?>
<!-- Generator: Adobe Illustrator 19.0.0, SVG Export Plug-In . SVG Version: 6.00 Build 0)  -->
<svg version="1.1" id="Capa_1" xmlns="http://www.w3.org/2000/svg" xmlns:xlink="http://www.w3.org/1999/xlink" x="0px" y="0px"
	 viewBox="0 0 512 512" style="enable-background:new 0 0 512 512;" xml:space="preserve">
<g>
	<g>
		<path d="M420.777,256l57.761-57.761C500.116,176.661,512,147.972,512,117.455c0-30.516-11.884-59.205-33.462-80.783l-3.21-3.21
			C453.75,11.884,425.06,0,394.545,0c-30.517,0-59.206,11.884-80.784,33.462L256,91.223l-57.761-57.761
			C176.661,11.884,147.972,0,117.455,0C86.939,0,58.25,11.884,36.672,33.462l-3.21,3.21C11.884,58.25,0,86.939,0,117.455
			c0,30.517,11.884,59.206,33.462,80.784L91.223,256l-57.761,57.761C11.884,335.339,0,364.028,0,394.545
			c0,30.516,11.884,59.205,33.462,80.783l3.21,3.21C58.25,500.116,86.939,512,117.455,512c30.517,0,59.206-11.884,80.784-33.462
			L256,420.777l57.761,57.761C335.339,500.116,364.028,512,394.545,512c30.516,0,59.205-11.884,80.783-33.462l3.21-3.21
			C500.116,453.75,512,425.06,512,394.545c0-30.517-11.884-59.206-33.462-80.784L420.777,256z M327.903,47.604
			C345.703,29.804,369.37,20,394.545,20c25.174,0,48.841,9.804,66.641,27.604l3.21,3.21c17.8,17.8,27.604,41.467,27.604,66.641
			c0,25.175-9.804,48.842-27.604,66.642l-57.761,57.761L301.743,136.966l74.479-74.48c3.905-3.905,3.905-10.237,0-14.143
			c-3.906-3.904-10.236-3.904-14.143,0l-74.48,74.479l-17.458-17.458L327.903,47.604z M47.604,184.096
			C29.804,166.297,20,142.63,20,117.455c0-25.174,9.804-48.841,27.604-66.641l3.21-3.21C68.614,29.804,92.281,20,117.455,20
			c25.175,0,48.842,9.804,66.642,27.604l57.761,57.761l-17.624,17.624l-74.479-74.48c-3.905-3.902-10.235-3.904-14.143,0
			c-3.905,3.905-3.905,10.237,0,14.143l74.479,74.48L105.365,241.857L47.604,184.096z M184.097,464.396
			c-17.8,17.8-41.467,27.604-66.642,27.604c-25.174,0-48.841-9.804-66.641-27.604l-3.21-3.21C29.804,443.386,20,419.719,20,394.545
			c0-25.175,9.804-48.842,27.604-66.642l57.761-57.761l17.458,17.458l-49.566,49.566c-3.905,3.905-3.905,10.237,0,14.143
			c1.953,1.952,4.512,2.929,7.071,2.929c2.56,0,5.118-0.977,7.071-2.929l49.566-49.566l104.892,104.892L184.097,464.396z
			 M119.508,256L256,119.508L392.492,256L256,392.492L119.508,256z M464.396,461.185l-3.21,3.21
			C443.386,482.196,419.719,492,394.545,492c-25.175,0-48.842-9.804-66.642-27.604l-57.761-57.761l104.727-104.727l49.565,49.566
			c1.953,1.952,4.512,2.929,7.071,2.929c2.559,0,5.118-0.977,7.071-2.929c3.905-3.905,3.905-10.237,0-14.143l-49.565-49.566
			l17.623-17.623l57.761,57.761C482.196,345.703,492,369.37,492,394.545C492,419.719,482.196,443.386,464.396,461.185z"/>
	</g>
</g>
<g>
	<g>
		<path d="M466.22,367.359c-0.12-0.64-0.32-1.26-0.57-1.869c-0.25-0.601-0.56-1.181-0.92-1.721c-0.359-0.55-0.779-1.069-1.239-1.529
			c-0.461-0.461-0.971-0.87-1.521-1.24c-0.54-0.36-1.12-0.67-1.729-0.92c-0.601-0.25-1.23-0.441-1.87-0.57
			c-1.29-0.26-2.61-0.26-3.9,0c-0.64,0.13-1.27,0.32-1.87,0.57c-0.609,0.25-1.189,0.559-1.73,0.92c-0.551,0.37-1.06,0.779-1.52,1.24
			c-0.46,0.46-0.88,0.979-1.24,1.529c-0.369,0.54-0.67,1.12-0.92,1.721c-0.25,0.609-0.449,1.229-0.569,1.869
			c-0.13,0.65-0.2,1.301-0.2,1.96c0,0.65,0.07,1.301,0.2,1.95c0.13,0.641,0.319,1.271,0.569,1.87c0.25,0.601,0.56,1.18,0.92,1.73
			c0.36,0.54,0.78,1.06,1.24,1.52c0.46,0.46,0.97,0.88,1.52,1.24c0.54,0.36,1.12,0.67,1.73,0.92c0.601,0.25,1.23,0.44,1.87,0.57
			c0.64,0.13,1.3,0.19,1.95,0.19c0.649,0,1.31-0.06,1.95-0.19s1.27-0.32,1.87-0.57c0.609-0.25,1.189-0.56,1.729-0.92
			c0.55-0.36,1.061-0.78,1.521-1.24c0.46-0.46,0.88-0.979,1.239-1.52c0.36-0.551,0.67-1.13,0.92-1.73c0.25-0.6,0.44-1.229,0.57-1.87
			c0.13-0.649,0.2-1.3,0.2-1.95C466.42,368.66,466.35,368.009,466.22,367.359z"/>
	</g>
</g>
<g>
	<g>
		<path d="M282.067,269.151c-0.267-21.408-17.898-39.023-39.302-39.268c-31.849-0.374-39.061,1.123-41.433,1.612
			c-6.429,1.33-15.927,4.156-24.148,13.308c-13.679,15.228-13.303,38.246,0.857,52.404c0,0,0,0,0.001,0.001
			c6.173,6.174,15.249,9.718,26.303,10.282c0.469,10.956,4.07,20.091,10.448,26.471c7.236,7.235,16.785,10.872,26.427,10.871
			c9.225,0,18.533-3.328,25.979-10.017c9.17-8.241,11.986-17.735,13.307-24.159C280.99,308.299,282.464,301.13,282.067,269.151z
			 M260.916,306.628c-1.244,6.05-3.297,9.906-7.084,13.31c-7.198,6.466-18.366,6.411-24.896-0.118
			c-3.648-3.649-4.533-9.582-4.634-13.915c-0.229-9.976-8.21-18.038-18.168-18.356c-3.653-0.117-10.324-0.855-13.95-4.482
			c0,0,0-0.001-0.001-0.001c-6.531-6.531-6.586-17.7-0.121-24.896c3.396-3.78,7.255-5.833,13.318-7.088
			c1.964-0.405,8.417-1.256,27.945-1.256c2.793,0,5.856,0.018,9.209,0.056c10.639,0.122,19.401,8.878,19.534,19.518
			C262.402,296.313,261.374,304.4,260.916,306.628z"/>
	</g>
</g>
<g>
	<g>
		<path d="M319.899,265.739c-0.992-0.055-1.992-0.054-2.997,0.003c4.541-1.856,8.944-4.753,12.847-8.656
			c13.038-13.038,14.851-31.653,4.126-42.377c-5.424-5.425-13.359-7.832-21.783-6.603c-4.446,0.649-8.842,2.267-12.903,4.703
			c2.436-4.061,4.053-8.456,4.703-12.902c1.23-8.419-1.175-16.358-6.6-21.781c-5.425-5.426-13.368-7.833-21.783-6.603
			c-7.454,1.089-14.769,4.898-20.597,10.726c-3.903,3.903-6.8,8.306-8.655,12.848c0.057-1.005,0.058-2.005,0.003-2.997
			c-0.404-7.256-3.855-13.577-9.467-17.342h0.001c-10.915-7.321-26.264-2.92-34.946,10.021c-8.681,12.936-6.932,28.806,3.979,36.127
			c3.484,2.338,7.564,3.532,11.803,3.531c2.585,0,5.23-0.444,7.833-1.344c5.978-2.067,11.413-6.4,15.305-12.2
			c1.232-1.836,2.269-3.76,3.101-5.731c-0.5,7.316,1.758,14.305,6.92,19.467c4.695,4.694,10.901,6.986,17.49,6.986
			c5.659,0,11.601-1.691,17.109-5.004c-7.17,11.921-6.744,25.873,1.984,34.601c4.695,4.694,10.901,6.986,17.49,6.986
			c0.655,0,1.313-0.023,1.974-0.068c-1.971,0.831-3.895,1.868-5.731,3.1c-5.8,3.892-10.133,9.327-12.2,15.305
			c-2.375,6.868-1.577,14.025,2.188,19.636c4.193,6.249,11.19,9.493,18.835,9.493c5.703,0,11.766-1.805,17.293-5.514
			c12.94-8.684,17.343-24.034,10.021-34.945C333.477,269.595,327.155,266.144,319.899,265.739z M224.161,199.75
			c-1.462,2.179-3.369,3.798-5.233,4.442c-0.674,0.234-1.545,0.384-1.955,0.107c-0.828-0.556-1.333-4.179,1.483-8.376
			c2.338-3.483,5.174-4.705,6.548-4.705c0.283,0,0.505,0.053,0.646,0.147c0.001,0,0.001,0,0.001,0
			c0.412,0.276,0.602,1.137,0.641,1.85C226.402,195.186,225.625,197.567,224.161,199.75z M284.103,197.016
			c-0.465,3.176-2.315,6.583-5.079,9.346c-2.763,2.764-6.169,4.614-9.346,5.078c-0.994,0.146-3.452,0.343-4.747-0.952
			c-1.298-1.298-1.1-3.754-0.954-4.75c0.464-3.176,2.314-6.582,5.078-9.345c2.763-2.764,6.169-4.614,9.346-5.078
			c0.341-0.05,0.853-0.107,1.431-0.107c1.111,0,2.466,0.207,3.319,1.061C284.447,193.564,284.249,196.02,284.103,197.016z
			 M306.262,248.02c-0.999,0.146-3.454,0.343-4.747-0.95c-1.298-1.297-1.1-3.754-0.954-4.749c0.464-3.177,2.315-6.583,5.078-9.346
			c2.763-2.764,6.169-4.614,9.346-5.078c0.341-0.05,0.853-0.107,1.432-0.107c1.11,0,2.465,0.207,3.317,1.061
			c1.294,1.293,1.096,3.75,0.95,4.747c-0.464,3.178-2.314,6.584-5.076,9.346C312.846,245.706,309.44,247.556,306.262,248.02z
			 M316.077,293.544c-4.197,2.815-7.822,2.31-8.377,1.483c-0.276-0.412-0.126-1.28,0.107-1.955c0.645-1.864,2.264-3.771,4.442-5.233
			c2.046-1.373,4.268-2.142,6.16-2.142c0.126,0,0.251,0.004,0.374,0.011c0.713,0.039,1.573,0.228,1.85,0.641v0.001
			C321.19,287.177,320.28,290.724,316.077,293.544z"/>
	</g>
</g>
<g>
	<g>
		<path d="M65.219,367.2c-0.129-0.64-0.32-1.27-0.57-1.87c-0.25-0.61-0.56-1.191-0.92-1.73c-0.359-0.55-0.779-1.06-1.239-1.52
			c-0.471-0.46-0.98-0.88-1.521-1.24c-0.55-0.36-1.13-0.67-1.729-0.92c-0.601-0.25-1.23-0.44-1.87-0.57c-1.29-0.26-2.62-0.26-3.91,0
			c-0.641,0.13-1.271,0.32-1.87,0.57c-0.6,0.25-1.18,0.56-1.73,0.92c-0.54,0.36-1.06,0.78-1.52,1.24c-0.46,0.46-0.88,0.97-1.24,1.52
			c-0.359,0.54-0.67,1.12-0.92,1.73c-0.25,0.6-0.439,1.229-0.57,1.87c-0.13,0.64-0.19,1.3-0.19,1.949c0,0.65,0.06,1.311,0.19,1.95
			c0.131,0.641,0.32,1.27,0.57,1.88c0.25,0.601,0.561,1.181,0.92,1.721c0.36,0.55,0.78,1.06,1.24,1.52
			c0.46,0.46,0.979,0.88,1.52,1.25c0.551,0.36,1.131,0.66,1.73,0.91c0.6,0.25,1.229,0.45,1.87,0.57c0.649,0.13,1.3,0.199,1.95,0.199
			c0.659,0,1.31-0.069,1.96-0.199c0.64-0.12,1.27-0.32,1.87-0.57c0.6-0.25,1.18-0.55,1.729-0.91c0.54-0.37,1.05-0.79,1.521-1.25
			c0.46-0.46,0.869-0.97,1.239-1.52c0.36-0.54,0.67-1.12,0.92-1.721c0.25-0.609,0.44-1.239,0.57-1.88c0.13-0.64,0.19-1.3,0.19-1.95
			C65.409,368.5,65.348,367.839,65.219,367.2z"/>
	</g>
</g>
<g>
</g>
<g>
</g>
<g>
</g>
<g>
</g>
<g>
</g>
<g>
</g>
<g>
</g>
<g>
</g>
<g>
</g>
<g>
</g>
<g>
</g>
<g>
</g>
<g>
</g>
<g>
</g>
<g>
</g>
</svg>
