<?xml version="1.0" encoding="iso-8859-1"?>
<!-- Generator: Adobe Illustrator 19.0.0, SVG Export Plug-In . SVG Version: 6.00 Build 0)  -->
<svg version="1.1" id="Capa_1" xmlns="http://www.w3.org/2000/svg" xmlns:xlink="http://www.w3.org/1999/xlink" x="0px" y="0px"
	 viewBox="0 0 512 512" style="enable-background:new 0 0 512 512;" xml:space="preserve">
<path style="fill:#FFC850;" d="M512,173.706c0-57.436-126.256-60.541-154.543-75.892c-28.545-15.491-3.795-36.566-7.934-47.605
	c-5.649-15.067-27.14-12.343-36.221,3.45c-7.933,13.798-15.868,57.609,33.807,75.891c32.863,12.095,108.951,14.115,123.238,41.31
	c5.335,10.155-5.001,27.498-31.546,27.925c-7.946,0.128-15.67-2.258-22.895-5.568c-1.367-0.626-2.761-1.209-4.189-1.737
	c-43.163-15.965-119.015-29.556-207.336-24.005c-15.36,0.966-30.471-4.987-40.569-16.6c-14.11-16.225-36.947-39.134-63.006-52.371
	c0,0-20.353-10.694-42.086-5.519c-4.686,1.116-18.357,5.858-18.357,5.858c-8.955,2.858-16.273,9.387-20.131,17.959l-6.358,14.129
	l-9.808,8.917c-3.317,3.016-4.752,7.586-3.753,11.956l4.76,20.824c2.693,11.785,13.482,19.92,25.553,19.267
	c0,0,10.062-0.07,22.407-1.702c3.741-0.494,7.294,1.632,8.735,5.118c27.985,67.697,88.829,116.834,88.829,116.834l7.487,118.213
	l-30.987,12.394c-6.286,2.514-10.409,8.603-10.409,15.374v7.004c0,3.658,2.965,6.623,6.623,6.623l44.823,0.001
	c8.414,0,15.497-6.279,16.447-14.639c3.262-28.712,10.624-81.558,15.713-120.27c63.641-0.472,139.38-22.966,160.853-29.771
	c30.273,67.002,90.14,80.508,90.14,80.508l-8.279,42.776l-22.091,6.856c-4.986,1.547-8.95,5.356-10.696,10.276l-5.473,15.426
	c-1.53,4.311,1.668,8.838,6.242,8.838h39.251c7.843,0,14.61-5.502,16.209-13.18l16.577-79.563c0.882-4.235,0.072-8.647-2.257-12.292
	l-28.104-43.988l6.095-55.698c0.677-6.185,0.892-12.461-0.076-18.607c-0.175-1.112-0.702-3.89-1.78-7.406
	C500.582,221.754,512,194.714,512,173.706z"/>
<path style="fill:#EBAF4B;" d="M58.719,57.673v36.589c0,5.001,3.212,9.435,7.964,10.994l22.757,7.467
	c6.528,2.142,12.87-3.686,11.419-10.401C94.214,71.581,74.511,58.605,64.58,53.899C61.845,52.603,58.719,54.647,58.719,57.673z"/>
<path style="fill:#4B3F4E;" d="M41.554,140.589c-4.576,0-8.32-3.707-8.32-8.279c0-4.572,3.663-8.279,8.239-8.279h0.081
	c4.576,0,8.279,3.707,8.279,8.279C49.834,136.882,46.131,140.589,41.554,140.589z"/>
<g>
	<path style="fill:#F5DCB4;" d="M81.555,173.932c-5.297-8.459-15.151-12.838-25.004-11.247c-14.521,2.345-51.479,9.942-54.401-2.839
		l2.922,12.781c2.693,11.785,13.482,19.92,25.553,19.267c0,0,10.062-0.07,22.407-1.702c3.741-0.494,7.294,1.632,8.735,5.118
		c27.985,67.697,88.829,116.834,88.829,116.834l-3.925-44.152c-0.643-7.237-3.594-14.014-8.508-19.366
		C126.752,236.2,103.96,209.713,81.555,173.932z"/>
	<path style="fill:#F5DCB4;" d="M205.14,296.551l-4.846,40.294c63.641-0.472,139.38-22.966,160.853-29.771l-5.668-16.713
		c-2.461-7.258-9.536-11.875-17.167-11.172c-22.96,2.115-72.484,5.774-115.642,2.852
		C213.878,281.446,206.192,287.803,205.14,296.551z"/>
	<path style="fill:#F5DCB4;" d="M153.846,363.445l4.238,66.912l-30.987,12.394c-6.286,2.514-10.409,8.603-10.409,15.373v7.005
		c0,3.658,2.965,6.623,6.623,6.623l44.823,0.001c8.414,0,15.497-6.279,16.447-14.639c1.943-17.106,5.343-42.781,8.849-68.926
		C171.867,384.823,153.846,363.445,153.846,363.445z"/>
	<path style="fill:#F5DCB4;" d="M483.027,379.01c0.882-4.235,0.073-8.646-2.256-12.292l-9.131-14.291
		c-18.059,15.913-39.917,19.005-56.528,18.383c19.868,13.01,36.175,16.772,36.175,16.772l-8.279,42.776l-22.091,6.856
		c-4.986,1.547-8.95,5.356-10.696,10.276l-5.473,15.426c-1.53,4.311,1.668,8.838,6.242,8.838h39.251
		c7.843,0,14.609-5.502,16.209-13.18L483.027,379.01z"/>
</g>
<g>
	<path style="fill:#FAEBC8;" d="M158.083,430.358l-30.987,12.394c-6.286,2.514-10.409,8.603-10.409,15.373v7.005
		c0,3.658,2.965,6.623,6.623,6.623l44.823,0.001c8.414,0,15.497-6.279,16.447-14.639c0.607-5.348,1.369-11.603,2.22-18.378
		L158.083,430.358z"/>
	<path style="fill:#FAEBC8;" d="M466.451,458.573l3.475-16.679l-26.918-11.536l-22.091,6.856c-4.986,1.547-8.95,5.356-10.696,10.276
		l-5.473,15.426c-1.53,4.311,1.668,8.838,6.242,8.838h39.251C458.084,471.753,464.851,466.251,466.451,458.573z"/>
</g>
<path style="fill:#F5DCB4;" d="M392.589,107.867c-15.385-3.268-28.205-6.294-35.132-10.054
	c-28.545-15.491-3.795-36.566-7.934-47.605c-5.649-15.067-27.14-12.343-36.221,3.45c-7.933,13.798-15.868,57.609,33.807,75.891
	c10.773,3.965,26.209,6.852,42.573,9.893C381.12,129.848,378.385,115.398,392.589,107.867z"/>
<path style="fill:#FAEBC8;" d="M343.861,74.813c1.563-9.5,7.928-18.559,5.662-24.604c-5.649-15.067-27.14-12.343-36.221,3.45
	c-2.528,4.397-5.036,11.853-5.7,20.548C317.082,57.281,337.975,60.724,343.861,74.813z"/>
<path style="fill:#EBAF4B;" d="M12.666,148.523c0-4.69-3.589-8.407-8.184-9.056l-0.417,0.38c-3.317,3.016-4.751,7.586-3.752,11.956
	l1.309,5.725c0.527,0.089,1.006,0.309,1.559,0.309C8.419,157.837,12.666,153.667,12.666,148.523z"/>
<g>
</g>
<g>
</g>
<g>
</g>
<g>
</g>
<g>
</g>
<g>
</g>
<g>
</g>
<g>
</g>
<g>
</g>
<g>
</g>
<g>
</g>
<g>
</g>
<g>
</g>
<g>
</g>
<g>
</g>
</svg>
