<?xml version="1.0" encoding="iso-8859-1"?>
<!-- Generator: Adobe Illustrator 19.0.0, SVG Export Plug-In . SVG Version: 6.00 Build 0)  -->
<svg version="1.1" id="Capa_1" xmlns="http://www.w3.org/2000/svg" xmlns:xlink="http://www.w3.org/1999/xlink" x="0px" y="0px"
	 viewBox="0 0 387.539 387.539" style="enable-background:new 0 0 387.539 387.539;" xml:space="preserve">
<g>
	<g>
		<path d="M232.698,90.179c-0.1-0.1-0.2-0.2-0.3-0.2c-29-21-35.3-69.9-35.4-70.6c-0.5-4.4-4.5-7.5-8.9-7c-4.4,0.5-7.5,4.5-7,8.9
			c0.3,2.2,6.8,54.2,39.7,80c-1,3.6-4.8,10.6-6.2,13.1c-1.1,2-2,3.6-2.6,4.9c-0.1,0.2-0.2,0.4-0.2,0.5c-1.6,4.5-3.1,9-4.6,13.4
			c-5.3,15.9-10.3,30.8-19.4,44.1c-11.8,16.7-25.5,31.4-36.6,39.2c-7.4,5.1-15.6,8.8-24.2,12.6c-7.9,3.6-16.2,7.2-24,12.2
			c-4.2,2.7-8.2,5.7-12,8.9c-7.6,6.2-14.8,12-23.7,12.9c-1.5,0.1-2.9,0.3-4.3,0.4c-9.1,0.8-18.6,1.6-28.7,7.5
			c-35.4,20.9-34.6,69-34.2,92.1c0.1,4.4,3.6,7.9,8,7.9h0.1c4.4-0.1,7.9-3.7,7.9-8.1v-0.1c-0.7-32.3,2.1-64,26.1-78.1
			c6.9-4,13.6-4.6,22-5.3c1.5-0.1,3-0.3,4.5-0.4c13.6-1.3,23.4-9.3,32.2-16.3c3.3-2.8,6.8-5.4,10.5-7.8c6.9-4.4,14.2-7.7,22-11.1
			c8.9-4,18.2-8.1,26.8-14.1c18.2-12.8,34.4-34.4,40.6-43.2c10.4-15.2,16.1-32,21.5-48.2c1.4-4.2,2.9-8.5,4.4-12.8
			c0.4-0.7,1.1-2.1,1.9-3.4C234.298,111.779,242.098,97.679,232.698,90.179z"/>
	</g>
</g>
<g>
	<g>
		<path d="M369.098,116.179c-16.5-30.6-42.9-49.1-76.3-53.5c-0.1,0-0.2,0-0.4,0c-2-0.2-3.9-0.2-5.7-0.2c-3.7-0.1-7.1-0.1-9.1-1.3
			c-0.1,0-0.1-0.1-0.2-0.1c-6.4-3.6-31.6-32.5-33-53c-0.3-4.4-4.1-7.7-8.5-7.4c-4.4,0.3-7.7,4.1-7.4,8.5c1.7,26.6,29.9,59.5,41,65.9
			c5.6,3.3,11.6,3.4,17,3.5c1.6,0,3.1,0,4.5,0.2c28.4,3.7,49.9,19,64,45.3c11.7,22,17.6,50.7,16.5,81
			c-3.1,76.4-40.9,131.8-106.5,156.1c-18.6,7-83.3,21.1-135.4-5.9c0,0-0.1,0-0.1-0.1c-9.6-4.8-18.4-12.8-28-25.3l-0.1-0.2
			c-7.5-10.1-17.7-24-37.8-16.1c-22.3,8.4-22.3,40.7-22.3,54.4c0,4.4,3.6,8,8,8c4.4,0,8-3.6,8-8c0-9.6,0-34.9,12-39.5h0.1
			c7.9-3.1,10.9-0.6,19.2,10.6l0.2,0.2l0.1,0.1c11,14.5,21.7,24,33.5,29.9c22.6,11.7,49,17.6,78.4,17.6c4.1,0,8.2-0.1,12.4-0.3
			c27-1.5,48.9-7.4,57.4-10.7c36.2-13.4,64.7-35.4,84.9-65.5c19.5-29.1,30.3-64.5,31.9-105
			C388.598,172.279,382.098,140.679,369.098,116.179z"/>
	</g>
</g>
<g>
	<g>
		<path d="M345.098,192.479c-1.3-3-5.8-11.7-14.5-12.9c-0.1,0-0.2,0-0.3,0c-4.3-0.4-12.6,0.7-19.7,13.2
			c-16.7,25.7-42.5,39.6-61.3,46.8c-29.8,11.6-60,13.6-92,15.6c-8.2,0.5-17.8,1.5-27,5.2c-14.5,5.5-24.7,16.5-27.9,30.2
			s0.9,28.1,11.4,39.6c7.1,7.6,17.2,13.7,30.8,18.7c16.5,6,34,9.1,51.6,9c12.8,0,25.6-1.6,38.1-4.6c28.2-6.8,55.3-21.9,78.3-43.7
			c17.4-16.8,28.8-34,34.9-52.7C355.298,235.179,354.398,211.779,345.098,192.479z M332.298,251.579c0,0.1-0.1,0.2-0.1,0.2
			c-5.3,16.2-15.3,31.3-30.8,46.2c-20.9,19.9-45.5,33.6-71,39.8c-27.5,6.6-55.3,5.3-80.4-3.9c-11-4.1-19.3-9-24.5-14.6
			c-6.8-7.4-9.6-16.5-7.6-25s8.6-15.4,18.1-19c0.1,0,0.1,0,0.2-0.1c7.2-2.9,15.2-3.7,22.1-4.1c31.7-2,64.6-4.1,96.6-16.6
			c38.1-14.5,58.6-36.9,69.1-53.2c0.1-0.1,0.2-0.3,0.3-0.5c0.9-1.9,2.3-3.6,3.9-5c0.9,1,1.6,2.1,2.1,3.3c0,0.1,0.1,0.2,0.2,0.3
			C337.998,214.879,338.698,233.879,332.298,251.579z"/>
	</g>
</g>
<g>
</g>
<g>
</g>
<g>
</g>
<g>
</g>
<g>
</g>
<g>
</g>
<g>
</g>
<g>
</g>
<g>
</g>
<g>
</g>
<g>
</g>
<g>
</g>
<g>
</g>
<g>
</g>
<g>
</g>
</svg>
