<svg width="265" height="100" viewBox="0 0 265 100" fill="none" xmlns="http://www.w3.org/2000/svg">
<rect y="1" width="265" height="99" fill="white"/>
<path d="M62.6135 53.8231C62.591 60.0925 61.5167 65.5672 59.3906 70.2472C57.2645 74.8978 54.2635 78.4466 50.3876 80.8937C46.5116 83.3408 41.9955 84.5551 36.8393 84.5366C31.8002 84.5186 27.3369 83.2721 23.4493 80.7973C19.5617 78.2931 16.5421 74.752 14.3906 70.1739C12.2684 65.5667 11.1888 60.2454 11.1518 54.2101L11.1683 49.5959C11.1903 43.4436 12.2791 38.0128 14.4347 33.3037C16.5902 28.5946 19.6207 25.0019 23.5261 22.5257C27.4608 20.0202 31.9477 18.7765 36.9868 18.7945C42.1137 18.8129 46.6209 20.0742 50.5085 22.5783C54.4254 25.0533 57.4301 28.653 59.5226 33.3773C61.6152 38.0723 62.6503 43.5399 62.6279 49.7801L62.6135 53.8231ZM54.2348 49.6622C54.2619 42.0743 52.7593 36.2535 49.7269 32.1996C46.6947 28.1165 42.4393 26.0651 36.9608 26.0455C31.6288 26.0264 27.4174 28.0475 24.3267 32.1087C21.2654 36.1407 19.6779 41.7601 19.5642 48.9667L19.5473 53.6689C19.521 61.0223 21.0384 66.8139 24.0994 71.0437C27.1899 75.2442 31.445 77.3542 36.8649 77.3736C42.3141 77.3931 46.5399 75.4307 49.5423 71.4863C52.5449 67.5127 54.1033 61.82 54.2178 54.4082L54.2348 49.6622ZM71.9971 59.6135C72.0232 52.3186 73.7727 46.4655 77.2455 42.0541C80.7185 37.6134 85.2528 35.403 90.8485 35.4231C96.4148 35.443 100.817 37.3631 104.055 41.1833L104.144 16.3983L112.274 16.4274L112.032 83.9269L104.562 83.9002L104.184 78.8012C100.918 82.7739 96.3848 84.7498 90.584 84.7291C85.0763 84.7093 80.5873 82.4374 77.1172 77.9132C73.6763 73.3892 71.9689 67.4943 71.9949 60.2288L71.9971 59.6135ZM80.1236 60.5655C80.1043 65.9561 81.2025 70.1788 83.4181 73.2336C85.6338 76.2884 88.7045 77.8229 92.6302 77.8369C97.7864 77.8554 101.559 75.5544 103.949 70.9341L104.027 49.0934C101.612 44.6023 97.8843 42.3477 92.8452 42.3297C88.8609 42.3154 85.7499 43.8424 83.5124 46.9105C81.2748 49.9787 80.1452 54.5304 80.1236 60.5655ZM133.521 84.0039L125.392 83.9748L125.633 16.4752L133.763 16.5043L133.521 84.0039ZM155.406 84.0823L147.276 84.0531L147.447 36.5046L155.576 36.5337L155.406 84.0823ZM146.833 23.89C146.837 22.5717 147.237 21.4598 148.031 20.5545C148.855 19.6492 150.057 19.1994 151.639 19.2051C153.221 19.2107 154.421 19.6691 155.238 20.5803C156.055 21.4914 156.461 22.6061 156.456 23.9245C156.452 25.2428 156.038 26.34 155.214 27.216C154.391 28.0919 153.188 28.5271 151.606 28.5214C150.024 28.5158 148.824 28.072 148.007 27.1902C147.219 26.3084 146.828 25.2084 146.833 23.89ZM184.186 73.155L196.094 36.6788L204.399 36.7085L187.178 84.196L180.982 84.1738L163.926 36.5636L172.232 36.5934L184.186 73.155ZM240.703 84.3877C240.238 83.4485 239.863 81.7772 239.579 79.3738C235.785 83.2861 231.267 85.2328 226.023 85.214C221.335 85.1972 217.487 83.8651 214.479 81.2176C211.501 78.5409 210.018 75.1664 210.033 71.0942C210.051 66.143 211.939 62.3119 215.699 59.6007C219.488 56.8604 224.796 55.5024 231.622 55.5268L239.532 55.5552L239.546 51.8198C239.556 48.9781 238.714 46.7192 237.021 45.0432C235.328 43.3379 232.826 42.4793 229.516 42.4675C226.615 42.4571 224.181 43.1808 222.213 44.6386C220.245 46.0964 219.257 47.8653 219.249 49.9454L211.076 49.9161C211.084 47.5431 211.927 45.2609 213.605 43.0697C215.312 40.8492 217.604 39.0996 220.479 37.8208C223.384 36.5421 226.565 35.909 230.022 35.9214C235.501 35.941 239.788 37.3333 242.883 40.0983C245.979 42.834 247.577 46.6044 247.677 51.4095L247.599 73.2941C247.583 77.6593 248.127 81.133 249.231 83.7151L249.229 84.4182L240.703 84.3877ZM227.234 78.1431C229.783 78.1522 232.203 77.5017 234.492 76.1915C236.782 74.8814 238.444 73.1734 239.477 71.0678L239.512 61.312L233.14 61.2891C223.179 61.2535 218.188 64.1507 218.167 69.9807C218.158 72.5295 219 74.5247 220.694 75.9664C222.388 77.408 224.568 78.1336 227.234 78.1431Z" fill="black"/>
<rect x="6" y="15" width="62" height="74" fill="#219653" fill-opacity="0.8" style="mix-blend-mode:darken"/>
</svg>
